<svg width="158" height="143" viewBox="0 0 158 143" fill="none" xmlns="http://www.w3.org/2000/svg">
<path d="M158 103.188H0V132.438H158V103.188Z" fill="#A8A6A3"/>
<path d="M47.9796 62.5625H17.3163C16.2118 62.5625 15.3163 63.4579 15.3163 64.5625V130.438C15.3163 131.542 16.2118 132.438 17.3163 132.438H47.9796C49.0842 132.438 49.9796 131.542 49.9796 130.438V64.5625C49.9796 63.4579 49.0842 62.5625 47.9796 62.5625Z" fill="#F9CAD1"/>
<path d="M95.1224 32.5H62.0714V132.438H95.1224V32.5Z" fill="#F9CAD1"/>
<path d="M141.878 0H107.214V132.438H141.878V0Z" fill="#F9CAD1"/>
<path d="M49.9796 62.5625H36.2755V132.438H49.9796V62.5625Z" fill="#E2525D"/>
<path d="M95.1225 32.5H83.0306V132.438H95.1225V32.5Z" fill="#E2525D"/>
<path d="M141.878 0H128.173V132.438H141.878V0Z" fill="#E2525D"/>
<path d="M158 132.438H0V143H158V132.438Z" fill="#7F7F7E"/>
</svg>
