<svg width="119" height="146" viewBox="0 0 119 146" fill="none" xmlns="http://www.w3.org/2000/svg">
<path d="M106.109 29.5192H0V146H106.109V29.5192Z" fill="#D3D1CD"/>
<path d="M118.874 29.5192H106.109V146H118.874V29.5192Z" fill="#7F7F7E"/>
<path d="M24.5191 40.6885H15.3716C12.6102 40.6885 10.3716 42.9271 10.3716 45.6885V54.836C10.3716 57.5974 12.6102 59.836 15.3716 59.836H24.5191C27.2805 59.836 29.5191 57.5974 29.5191 54.836V45.6885C29.5191 42.9271 27.2805 40.6885 24.5191 40.6885Z" fill="#7F7F7E"/>
<path d="M58.0273 40.6885H48.8798C46.1184 40.6885 43.8798 42.9271 43.8798 45.6885V54.836C43.8798 57.5974 46.1184 59.836 48.8798 59.836H58.0273C60.7888 59.836 63.0273 57.5974 63.0273 54.836V45.6885C63.0273 42.9271 60.7888 40.6885 58.0273 40.6885Z" fill="#7F7F7E"/>
<path d="M93.1312 40.6885H83.1858C80.4244 40.6885 78.1858 42.9271 78.1858 45.6885V54.836C78.1858 57.5974 80.4244 59.836 83.1858 59.836H93.1311C95.8926 59.836 98.1311 57.5974 98.1311 54.836V45.6885C98.1311 42.9271 95.8926 40.6885 93.1312 40.6885Z" fill="#7F7F7E"/>
<path d="M23.7213 75.7924H15.3716C12.6102 75.7924 10.3716 78.0309 10.3716 80.7924V89.1421C10.3716 91.9035 12.6102 94.1421 15.3716 94.1421H23.7213C26.4827 94.1421 28.7213 91.9035 28.7213 89.1421V80.7924C28.7213 78.0309 26.4827 75.7924 23.7213 75.7924Z" fill="#7F7F7E"/>
<path d="M58.0273 75.7924H48.8798C46.1184 75.7924 43.8798 78.0309 43.8798 80.7924V89.1421C43.8798 91.9035 46.1184 94.1421 48.8798 94.1421H58.0273C60.7888 94.1421 63.0273 91.9035 63.0273 89.1421V80.7924C63.0273 78.0309 60.7888 75.7924 58.0273 75.7924Z" fill="#7F7F7E"/>
<path d="M92.3333 75.7924H83.1858C80.4244 75.7924 78.1858 78.0309 78.1858 80.7924V89.1421C78.1858 91.9035 80.4244 94.1421 83.1858 94.1421H92.3333C95.0948 94.1421 97.3333 91.9035 97.3333 89.1421V80.7924C97.3333 78.0309 95.0948 75.7924 92.3333 75.7924Z" fill="#7F7F7E"/>
<path d="M50.2623 108.503H36.6995V146H50.2623V108.503Z" fill="#7F7F7E"/>
<path d="M70.2076 108.503H55.847V146H70.2076V108.503Z" fill="#7F7F7E"/>
<path d="M70.2077 0H40.6885V29.5191H70.2077V0Z" fill="#E8E7E6"/>
<path d="M74.9945 0H70.2076V29.5191H74.9945V0Z" fill="#AFAEAE"/>
<path d="M55.2404 2.39343H53.2623C51.6054 2.39343 50.2623 3.73658 50.2623 5.39343V24.1257C50.2623 25.7825 51.6054 27.1257 53.2623 27.1257H55.2404C56.8973 27.1257 58.2404 25.7825 58.2404 24.1257V5.39343C58.2404 3.73658 56.8973 2.39343 55.2404 2.39343Z" fill="#E2525D"/>
<path d="M66.2186 15.3498L66.2186 14.1694C66.2186 12.5126 64.8754 11.1694 63.2186 11.1694L46.082 11.1694C44.4251 11.1694 43.082 12.5126 43.082 14.1694L43.082 15.3498C43.082 17.0066 44.4251 18.3498 46.082 18.3498L63.2186 18.3498C64.8754 18.3498 66.2186 17.0066 66.2186 15.3498Z" fill="#E2525D"/>
</svg>
