<svg width="39" height="39" viewBox="0 0 39 39" fill="none" xmlns="http://www.w3.org/2000/svg">
<g clip-path="url(#clip0_1_52)">
<path d="M15.4739 17.9376C15.314 17.9378 15.1541 17.9453 14.9949 17.9601V19.4963H15.5421C15.9918 19.4963 16.1814 19.2684 16.1814 18.7352C16.1814 18.2873 16.0613 17.9376 15.4739 17.9376Z" fill="black"/>
<path d="M25.7552 13.4763V0.965858H13.2326V13.4763H0.705048V25.9959H13.2326V38.5064H25.7552V25.9959H38.2791V13.4763H25.7552ZM5.04928 22.2739H2.52952V17.1996H4.98834V18.0217H3.51183V19.2386H4.84453V20.0533H3.51183V21.4744H5.04989L5.04928 22.2739ZM9.6787 22.2739H8.75794V18.9875H8.72686L7.77563 20.9192L6.81647 18.9954V22.2739H5.85731V17.1996H6.77808L7.77563 19.124L8.75794 17.1996H9.67931L9.6787 22.2739ZM13.2045 22.2739H10.6854V17.1996H13.1442V18.0217H11.6659V19.2386H12.9998V20.0533H11.6659V21.4744H13.2045V22.2739ZM17.1947 22.2739H16.1679L15.7024 20.4933C15.6646 20.3489 15.6341 20.2806 15.5049 20.2806H14.9949V22.2739H14.0126V17.2301C14.4854 17.18 14.9607 17.157 15.4361 17.1612C16.4714 17.1612 17.1484 17.6335 17.1484 18.6743C17.1484 19.4062 16.8517 19.7931 16.4019 19.9686V19.9765C16.5092 20.007 16.547 20.0832 16.5774 20.2117L17.1947 22.2739ZM21.3367 20.0588C21.3367 21.1624 21.0624 22.3574 19.6859 22.3574C18.2764 22.3574 17.812 20.996 17.812 19.7474C17.812 18.4848 18.3233 17.1155 19.7614 17.1155C20.3013 17.1155 20.7041 17.3373 21.0941 17.7243L20.553 18.447C20.3324 18.1734 20.1423 17.9534 19.7468 17.9534C18.9022 17.9534 18.8407 19.124 18.8407 19.7413C18.8407 20.3647 18.8632 21.5737 19.7151 21.5737C20.3696 21.5737 20.4451 20.9808 20.4451 20.4549V20.2733H19.7541V19.4677H21.3367V20.0588ZM24.7022 22.2739H22.1825V17.1996H24.6419V18.0217H23.163V19.2386H24.4969V20.0533H23.163V21.4744H24.7022V22.2739ZM28.9807 22.2739H28.1208L26.4914 19.1405H26.4688V22.2739H25.5097V17.1996H26.4609L28.0154 20.2044H28.0294V17.1996H28.9807V22.2739ZM31.7381 22.3574C30.3377 22.3574 29.835 21.1179 29.835 19.7407C29.835 18.4385 30.3761 17.1149 31.7844 17.1149C32.3773 17.1149 32.7655 17.3824 33.1555 17.8455L32.568 18.539C32.3481 18.2032 32.1427 17.9528 31.7685 17.9528C31.0745 17.9528 30.8612 18.8272 30.8612 19.7407C30.8612 20.4256 30.9989 21.5274 31.7905 21.5274C32.2036 21.5274 32.4303 21.2769 32.6814 20.9418L33.1841 21.6572C32.849 22.0679 32.3615 22.3574 31.7375 22.3567L31.7381 22.3574ZM35.6673 20.3342V22.2739H34.6923V20.3873L33.3669 17.199H34.4181L35.1877 19.5116L35.9562 17.199H36.9543L35.6679 20.3336L35.6673 20.3342Z" fill="black"/>
</g>
<defs>
<clipPath id="clip0_1_52">
<rect width="39" height="39" fill="white"/>
</clipPath>
</defs>
</svg>
