<svg width="36" height="37" viewBox="0 0 36 37" fill="none" xmlns="http://www.w3.org/2000/svg">
<path d="M1.79101 2.48825C1.77636 2.46106 1.76709 2.43116 1.76374 2.40028C1.7604 2.36939 1.76304 2.33813 1.77151 2.3083C1.77998 2.27847 1.79412 2.25065 1.81311 2.22647C1.8321 2.20228 1.85556 2.1822 1.88214 2.16739L3.55276 1.23198C3.57924 1.21698 3.60835 1.20753 3.6384 1.20418C3.66846 1.20083 3.69886 1.20365 3.72785 1.21247C3.75684 1.22129 3.78383 1.23593 3.80727 1.25556C3.83071 1.27519 3.85012 1.2994 3.86439 1.3268L4.53432 2.58306C7.06726 1.80259 9.87357 2.91259 11.1915 5.39333L7.95432 7.2098C8.21144 7.69439 8.27073 8.26411 8.11914 8.79363C7.96755 9.32316 7.61751 9.7691 7.14601 10.0334C6.67451 10.2976 6.12019 10.3586 5.60498 10.2028C5.08977 10.047 4.65588 9.68719 4.39876 9.20259L1.16045 11.0167C-0.158613 8.53717 0.4472 5.51126 2.45982 3.74509L1.79101 2.48825ZM24.5987 25.1172H35.4938V36.6924H24.5987V25.1172ZM23.3499 30.9025H14.5508C13.8133 30.9024 13.1061 30.6014 12.5845 30.0657C12.0628 29.53 11.7694 28.8033 11.7686 28.0454C11.7691 27.2875 12.0624 26.5607 12.5842 26.025C13.1059 25.4894 13.8133 25.1886 14.5508 25.1889H23.3499V30.9025ZM4.37851 33.2202C4.37851 32.5814 4.88195 32.0628 5.50407 32.0628H23.3494V36.6913H4.37851V33.2202ZM11.1454 27.4534C11.1445 28.3688 10.7899 29.2463 10.1597 29.8931C9.52945 30.5399 8.67508 30.903 7.78445 30.9025C7.34338 30.9029 6.90656 30.814 6.49892 30.6409C6.09128 30.4677 5.72082 30.2138 5.40867 29.8935C5.09653 29.5732 4.84882 29.1929 4.67969 28.7742C4.51056 28.3555 4.42332 27.9067 4.42295 27.4534C4.42295 25.5497 5.92764 24.0061 7.78445 24.0061C9.64014 24.0061 11.1454 25.5497 11.1454 27.4534ZM29.5166 17.7947L27.6261 12.2626C27.2593 11.2197 26.5551 10.4057 24.5672 10.4057H15.8394C13.8521 10.4057 13.1468 11.2197 12.7817 12.2626L10.8917 17.7947C10.7505 18.152 10.6774 18.955 11.4463 19.4926L15.8906 22.5024C16.2023 22.7135 16.5827 22.7891 16.9485 22.7125C17.3143 22.6359 17.6356 22.4133 17.8419 22.0936C17.9437 21.9349 18.0141 21.7572 18.049 21.5705C18.084 21.3839 18.0828 21.1919 18.0456 21.0058C18.0083 20.8196 17.9357 20.6428 17.832 20.4854C17.7282 20.328 17.5953 20.1932 17.4409 20.0887L13.9134 17.6993L14.9063 14.8844H16.2804L15.4755 17.168L18.1536 18.9822C18.45 19.1817 18.705 19.4397 18.9036 19.7413C19.1022 20.0429 19.2406 20.3821 19.3106 20.7391C19.3834 21.0959 19.3864 21.4641 19.3196 21.8221C19.2528 22.1802 19.1174 22.5211 18.9214 22.825C18.7642 23.0659 18.5714 23.28 18.3499 23.4597H22.0579C21.8368 23.2794 21.6438 23.0653 21.4858 22.825C21.2899 22.521 21.1545 22.1802 21.0875 21.8222C21.0205 21.4641 21.0232 21.096 21.0954 20.7391C21.166 20.3822 21.3046 20.0432 21.5033 19.7416C21.702 19.44 21.9568 19.1819 22.2531 18.9822L24.9328 17.168L24.1245 14.8844H25.4998L26.4949 17.6993L22.9658 20.0887C22.3172 20.5281 22.1361 21.4282 22.5653 22.0936C22.9944 22.759 23.8686 22.9429 24.5171 22.5024L28.9609 19.4926C29.7304 18.9544 29.6573 18.152 29.5166 17.7947ZM21.0718 4.99153C20.9656 5.22845 20.7956 5.42912 20.5818 5.5698C20.3681 5.71047 20.1196 5.78526 19.8658 5.7853C19.6116 5.78539 19.3627 5.71069 19.1485 5.57003C18.9343 5.42937 18.7638 5.22863 18.657 4.99153H16.2225C16.1831 5.21122 16.1601 5.43611 16.1601 5.66794C16.1608 6.68093 16.553 7.65214 17.2503 8.36801C17.9477 9.08387 18.8931 9.48576 19.8788 9.4853C20.3669 9.48568 20.8502 9.38723 21.3013 9.19559C21.7524 9.00395 22.1623 8.72286 22.5077 8.36838C22.8531 8.0139 23.1271 7.59296 23.3142 7.12962C23.5013 6.66627 23.5977 6.16959 23.598 5.66794C23.598 5.43553 23.5738 5.21122 23.5361 4.99153H21.0718ZM18.5749 4.09023C18.6475 3.79487 18.8139 3.53283 19.0477 3.34561C19.2815 3.15838 19.5694 3.05666 19.8658 3.05655C20.4879 3.05655 21.0128 3.49823 21.1545 4.09023H23.2639C22.9686 3.42218 22.4924 2.85563 21.8922 2.45827C21.292 2.06091 20.5933 1.84954 19.8793 1.84942C19.1654 1.84968 18.4667 2.06111 17.8665 2.45845C17.2664 2.8558 16.7902 3.42227 16.4948 4.09023H18.5749Z" fill="black"/>
</svg>
