<svg width="39" height="39" viewBox="0 0 39 39" fill="none" xmlns="http://www.w3.org/2000/svg">
<g clip-path="url(#clip0_1_65)">
<path fill-rule="evenodd" clip-rule="evenodd" d="M4.875 8.125C5.27302 8.12505 5.65717 8.27118 5.9546 8.53566C6.25204 8.80015 6.44206 9.16459 6.48863 9.55987L6.5 9.75V21.125H17.875V13C17.8751 12.602 18.0212 12.2178 18.2857 11.9204C18.5501 11.623 18.9146 11.4329 19.3099 11.3864L19.5 11.375H30.875C32.1185 11.3749 33.315 11.85 34.2197 12.7031C35.1244 13.5561 35.6689 14.7227 35.7419 15.964L35.75 16.25V29.25C35.7495 29.6642 35.5909 30.0625 35.3066 30.3637C35.0223 30.6649 34.6337 30.8461 34.2202 30.8704C33.8068 30.8947 33.3996 30.7602 33.082 30.4943C32.7644 30.2285 32.5603 29.8514 32.5114 29.4401L32.5 29.25V24.375H6.5V29.25C6.49954 29.6642 6.34095 30.0625 6.05662 30.3637C5.7723 30.6649 5.3837 30.8461 4.97023 30.8704C4.55677 30.8947 4.14963 30.7602 3.83202 30.4943C3.51441 30.2285 3.31029 29.8514 3.26137 29.4401L3.25 29.25V9.75C3.25 9.31902 3.4212 8.9057 3.72595 8.60095C4.0307 8.29621 4.44402 8.125 4.875 8.125ZM12.1875 11.375C13.2649 11.375 14.2983 11.803 15.0601 12.5649C15.822 13.3267 16.25 14.3601 16.25 15.4375C16.25 16.5149 15.822 17.5483 15.0601 18.3101C14.2983 19.072 13.2649 19.5 12.1875 19.5C11.1101 19.5 10.0767 19.072 9.31488 18.3101C8.55301 17.5483 8.125 16.5149 8.125 15.4375C8.125 14.3601 8.55301 13.3267 9.31488 12.5649C10.0767 11.803 11.1101 11.375 12.1875 11.375Z" fill="black"/>
</g>
<defs>
<clipPath id="clip0_1_65">
<rect width="39" height="39" fill="white"/>
</clipPath>
</defs>
</svg>
